<mxfile host="app.diagrams.net" modified="2020-08-31T13:16:02.751Z" agent="5.0 (Windows NT 10.0; Win64; x64) AppleWebKit/537.36 (KHTML, like Gecko) Chrome/84.0.4147.135 Safari/537.36" etag="qX1bpvtrfekrDHWv_2uB" version="13.6.6" type="github">
  <diagram id="WVo5sF7_L_1Ln6oXgJEd" name="Page-1">
    <mxGraphModel dx="2095" dy="1982" grid="1" gridSize="10" guides="1" tooltips="1" connect="1" arrows="1" fold="1" page="1" pageScale="1" pageWidth="827" pageHeight="1169" math="0" shadow="0">
      <root>
        <mxCell id="0" />
        <mxCell id="1" parent="0" />
        <mxCell id="M3BoWNHXHS7NVgi7Js90-3" value="" style="rounded=0;whiteSpace=wrap;html=1;" vertex="1" parent="1">
          <mxGeometry x="-740" y="-1070" width="730" height="330" as="geometry" />
        </mxCell>
        <mxCell id="M3BoWNHXHS7NVgi7Js90-12" value="" style="rounded=0;whiteSpace=wrap;html=1;" vertex="1" parent="1">
          <mxGeometry x="-740" y="-1070" width="730" height="60" as="geometry" />
        </mxCell>
        <mxCell id="M3BoWNHXHS7NVgi7Js90-13" value="Name" style="rounded=0;whiteSpace=wrap;html=1;" vertex="1" parent="1">
          <mxGeometry x="-740" y="-1055" width="120" height="30" as="geometry" />
        </mxCell>
        <mxCell id="M3BoWNHXHS7NVgi7Js90-14" value="" style="whiteSpace=wrap;html=1;aspect=fixed;" vertex="1" parent="1">
          <mxGeometry x="-100" y="-1055" width="40" height="40" as="geometry" />
        </mxCell>
        <mxCell id="M3BoWNHXHS7NVgi7Js90-15" value="" style="whiteSpace=wrap;html=1;aspect=fixed;" vertex="1" parent="1">
          <mxGeometry x="-60" y="-1055" width="40" height="40" as="geometry" />
        </mxCell>
        <mxCell id="M3BoWNHXHS7NVgi7Js90-16" value="" style="rounded=0;whiteSpace=wrap;html=1;" vertex="1" parent="1">
          <mxGeometry x="-740" y="-1010" width="730" height="60" as="geometry" />
        </mxCell>
        <mxCell id="M3BoWNHXHS7NVgi7Js90-17" value="&lt;span style=&quot;font-size: 20px&quot;&gt;Excel&lt;/span&gt;" style="text;html=1;strokeColor=none;fillColor=none;align=center;verticalAlign=middle;whiteSpace=wrap;rounded=0;" vertex="1" parent="1">
          <mxGeometry x="-710" y="-1110" width="100" height="40" as="geometry" />
        </mxCell>
        <mxCell id="M3BoWNHXHS7NVgi7Js90-18" value="Header" style="text;html=1;align=center;verticalAlign=middle;resizable=0;points=[];autosize=1;" vertex="1" parent="1">
          <mxGeometry x="-820" y="-1050" width="60" height="20" as="geometry" />
        </mxCell>
        <mxCell id="M3BoWNHXHS7NVgi7Js90-19" value="Toolbar" style="text;html=1;align=center;verticalAlign=middle;resizable=0;points=[];autosize=1;" vertex="1" parent="1">
          <mxGeometry x="-820" y="-990" width="60" height="20" as="geometry" />
        </mxCell>
        <mxCell id="M3BoWNHXHS7NVgi7Js90-26" value="" style="edgeStyle=orthogonalEdgeStyle;rounded=0;orthogonalLoop=1;jettySize=auto;html=1;" edge="1" parent="1" source="M3BoWNHXHS7NVgi7Js90-20" target="M3BoWNHXHS7NVgi7Js90-21">
          <mxGeometry relative="1" as="geometry" />
        </mxCell>
        <mxCell id="M3BoWNHXHS7NVgi7Js90-20" value="" style="whiteSpace=wrap;html=1;aspect=fixed;" vertex="1" parent="1">
          <mxGeometry x="-720" y="-1000" width="40" height="40" as="geometry" />
        </mxCell>
        <mxCell id="M3BoWNHXHS7NVgi7Js90-27" value="" style="edgeStyle=orthogonalEdgeStyle;rounded=0;orthogonalLoop=1;jettySize=auto;html=1;" edge="1" parent="1" source="M3BoWNHXHS7NVgi7Js90-21" target="M3BoWNHXHS7NVgi7Js90-22">
          <mxGeometry relative="1" as="geometry" />
        </mxCell>
        <mxCell id="M3BoWNHXHS7NVgi7Js90-21" value="" style="whiteSpace=wrap;html=1;aspect=fixed;" vertex="1" parent="1">
          <mxGeometry x="-610" y="-1000" width="40" height="40" as="geometry" />
        </mxCell>
        <mxCell id="M3BoWNHXHS7NVgi7Js90-28" value="" style="edgeStyle=orthogonalEdgeStyle;rounded=0;orthogonalLoop=1;jettySize=auto;html=1;" edge="1" parent="1" source="M3BoWNHXHS7NVgi7Js90-22" target="M3BoWNHXHS7NVgi7Js90-23">
          <mxGeometry relative="1" as="geometry" />
        </mxCell>
        <mxCell id="M3BoWNHXHS7NVgi7Js90-22" value="" style="whiteSpace=wrap;html=1;aspect=fixed;" vertex="1" parent="1">
          <mxGeometry x="-500" y="-1000" width="40" height="40" as="geometry" />
        </mxCell>
        <mxCell id="M3BoWNHXHS7NVgi7Js90-29" value="" style="edgeStyle=orthogonalEdgeStyle;rounded=0;orthogonalLoop=1;jettySize=auto;html=1;" edge="1" parent="1" source="M3BoWNHXHS7NVgi7Js90-23" target="M3BoWNHXHS7NVgi7Js90-24">
          <mxGeometry relative="1" as="geometry" />
        </mxCell>
        <mxCell id="M3BoWNHXHS7NVgi7Js90-23" value="" style="whiteSpace=wrap;html=1;aspect=fixed;" vertex="1" parent="1">
          <mxGeometry x="-400" y="-1000" width="40" height="40" as="geometry" />
        </mxCell>
        <mxCell id="M3BoWNHXHS7NVgi7Js90-24" value="" style="whiteSpace=wrap;html=1;aspect=fixed;" vertex="1" parent="1">
          <mxGeometry x="-290" y="-1000" width="40" height="40" as="geometry" />
        </mxCell>
        <mxCell id="M3BoWNHXHS7NVgi7Js90-30" value="" style="rounded=0;whiteSpace=wrap;html=1;" vertex="1" parent="1">
          <mxGeometry x="-740" y="-950" width="730" height="50" as="geometry" />
        </mxCell>
        <mxCell id="M3BoWNHXHS7NVgi7Js90-31" value="FX" style="whiteSpace=wrap;html=1;aspect=fixed;" vertex="1" parent="1">
          <mxGeometry x="-740" y="-950" width="50" height="50" as="geometry" />
        </mxCell>
        <mxCell id="M3BoWNHXHS7NVgi7Js90-32" value="Formula" style="text;html=1;align=center;verticalAlign=middle;resizable=0;points=[];autosize=1;" vertex="1" parent="1">
          <mxGeometry x="-820" y="-930" width="60" height="20" as="geometry" />
        </mxCell>
        <mxCell id="M3BoWNHXHS7NVgi7Js90-33" value="Table" style="text;html=1;align=center;verticalAlign=middle;resizable=0;points=[];autosize=1;" vertex="1" parent="1">
          <mxGeometry x="-820" y="-820" width="40" height="20" as="geometry" />
        </mxCell>
        <mxCell id="M3BoWNHXHS7NVgi7Js90-34" value="" style="rounded=0;whiteSpace=wrap;html=1;" vertex="1" parent="1">
          <mxGeometry x="-740" y="-680" width="730" height="210" as="geometry" />
        </mxCell>
        <mxCell id="M3BoWNHXHS7NVgi7Js90-35" value="Dashboard" style="text;html=1;align=center;verticalAlign=middle;resizable=0;points=[];autosize=1;" vertex="1" parent="1">
          <mxGeometry x="-745" y="-710" width="70" height="20" as="geometry" />
        </mxCell>
        <mxCell id="M3BoWNHXHS7NVgi7Js90-36" value="Excel dashboard" style="rounded=0;whiteSpace=wrap;html=1;" vertex="1" parent="1">
          <mxGeometry x="-740" y="-680" width="730" height="60" as="geometry" />
        </mxCell>
        <mxCell id="M3BoWNHXHS7NVgi7Js90-37" value="+" style="rounded=0;whiteSpace=wrap;html=1;" vertex="1" parent="1">
          <mxGeometry x="-720" y="-570" width="120" height="60" as="geometry" />
        </mxCell>
      </root>
    </mxGraphModel>
  </diagram>
</mxfile>
